# xmcd
#
# Track frame offsets: 
#        150
#        17150
#        30310
#        44251
#        69537
#        80845
#        93902
#        105647
#        121718
#        135356
#        152495
#        171530
#        184600
#        222783
#
# Disc length: 3201 seconds
#
# Revision: 0
# Processed by: cddbd v1.5.2PL0 Copyright (c) Steve Scherf et al.
# Submitted via: ExactAudioCopy v1.0b3
#
DISCID=ae0c7f0e
DTITLE=Mark Brine - I Deliver
DYEAR=2006
DGENRE=Blues, Country Blues
TTITLE0=Jessica Blue
TTITLE1=Cranky, Ole Cantankerous Cow
TTITLE2=Let's Get Down Tonite
TTITLE3=Still Waitin' For A Train
TTITLE4=Chickenfeed
TTITLE5=I Deliver
TTITLE6=Mrs. Blues
TTITLE7=Tom Cattin'
TTITLE8=Ukulele Yodelin' Blues
TTITLE9=Like Crazy
TTITLE10=El-Duke-O Blues (In Memory Of Joseph Buchanan)
TTITLE11=Love Is A Game (Like Russian Roulette)
TTITLE12=Skinny Dippin' Blues
TTITLE13=In The Hands Of God
EXTD=
EXTT0=
EXTT1=
EXTT2=
EXTT3=
EXTT4=
EXTT5=
EXTT6=
EXTT7=
EXTT8=
EXTT9=
EXTT10=
EXTT11=
EXTT12=
EXTT13=
PLAYORDER=
